<svg xmlns="http://www.w3.org/2000/svg" width="129" height="122" fill="none"><g fill="#fff" stroke="#fff" stroke-width="2.324" clip-path="url(#a)"><path d="M70.192-1.126C104.225.367 130.098 28.269 130.1 60.982c0 32.71-25.87 60.792-59.979 62.214l-1.214.051.003-1.216.07-23.793.003-1.158h35.704l.281-13.44L76.79 62.151l-1.207-.92 1.204-.926 27.945-21.456V24.884L70.07 24.85h-1.164l.003-1.165.07-23.654.004-1.21zM60.027 123.176l-1.209-.05c-34-1.386-59.98-29.22-59.98-62.179 0-32.71 25.942-60.722 59.91-62.108l1.205-.049.004 1.206.07 23.654.003 1.165H24.19L24 38.923l27.937 21.31.06.046.09.09.94.936-1.052.808-27.841 21.385v13.48l34.733.067 1.16.003z"/><path d="m65 70.213 15.023 11.513 2.562 1.963-3.226.12c-10.396.384-18.79.35-29.765.105l-3.222-.072L48.9 81.84l14.673-11.617.71-.562zM82.08 38.505l-2.353 2.04c-5.145 4.458-9.656 7.934-14.792 11.614l-.704.505-.686-.532-14.882-11.547-2.68-2.08z"/></g><defs><clipPath id="a"><path fill="#fff" d="M0 0h128.971v122H0z"/></clipPath></defs></svg>
